<svg width="16" height="16" viewBox="0 0 16 16" fill="none" xmlns="http://www.w3.org/2000/svg">
<path d="M14.9725 5.82918C15.1183 5.82918 15.2581 5.88709 15.3612 5.99019C15.4643 6.09329 15.5222 6.23312 15.5222 6.37892C15.5222 6.52471 15.4643 6.66454 15.3612 6.76764C15.2581 6.87074 15.1183 6.92865 14.9725 6.92865L1.45659 6.92865C1.34795 6.92863 1.24174 6.89642 1.1514 6.83608C1.06105 6.77574 0.990602 6.68998 0.948957 6.58963C0.907313 6.48929 0.896335 6.37885 0.917412 6.27227C0.938488 6.16569 0.990673 6.06774 1.06738 5.9908L6.17665 0.880424C6.22772 0.829229 6.28838 0.788611 6.35517 0.760897C6.42196 0.733183 6.49356 0.718917 6.56587 0.718917C6.63818 0.718917 6.70978 0.733183 6.77656 0.760897C6.84335 0.788611 6.90402 0.829229 6.95508 0.880424L6.95508 0.882623C7.05781 0.985669 7.11549 1.12524 7.11549 1.27074C7.11549 1.41624 7.05781 1.55581 6.95508 1.65885L2.78146 5.82918L14.9725 5.82918ZM14.1951 9.12761C14.3037 9.12785 14.4097 9.16022 14.4999 9.22064C14.5901 9.28107 14.6604 9.36684 14.7019 9.46714C14.7434 9.56744 14.7543 9.67778 14.7332 9.78426C14.7121 9.89074 14.6599 9.98859 14.5833 10.0655L9.47509 15.1758C9.42402 15.227 9.36336 15.2677 9.29657 15.2954C9.22978 15.3231 9.15818 15.3373 9.08587 15.3373C9.01356 15.3373 8.94196 15.3231 8.87517 15.2954C8.80839 15.2677 8.74772 15.227 8.69666 15.1758L8.69666 15.1736C8.59393 15.0706 8.53625 14.931 8.53625 14.7855C8.53625 14.64 8.59393 14.5005 8.69666 14.3974L12.8681 10.2271L0.67926 10.2271C0.53346 10.2271 0.393632 10.1692 0.290536 10.0661C0.18744 9.96298 0.129521 9.82315 0.129521 9.67735C0.129521 9.53155 0.18744 9.39172 0.290536 9.28863C0.393632 9.18553 0.53346 9.12761 0.67926 9.12761L14.1951 9.12761Z" fill="black"/>
</svg>
