<svg width="94" height="52" viewBox="0 0 94 52" fill="none" xmlns="http://www.w3.org/2000/svg">
<path d="M45.3981 11.2212L45.4049 39.8634C45.4049 40.0887 45.4116 40.3139 45.4252 40.5376C45.4254 40.6422 45.5107 40.7298 45.6231 40.741C45.7295 40.7565 45.837 40.7644 45.9447 40.7644H52.2786L52.3325 40.7642C52.6633 40.763 52.8337 40.7624 52.9215 40.6836C53.0149 40.5999 53.0148 40.4278 53.0147 40.0728L53.0147 39.5881C53.0046 36.3857 53.0046 33.1832 53.0147 29.9808C53.0152 29.8794 53.008 29.7771 53.0008 29.6747C52.9802 29.3817 52.9596 29.0869 53.1163 28.8076C53.4266 28.7008 53.7462 28.7155 54.0648 28.7302C54.1753 28.7353 54.2857 28.7404 54.3956 28.7404H59.1862C59.6025 28.7388 59.6617 28.6934 59.7396 28.3446C59.7731 28.198 59.7906 28.0486 59.792 27.8988V23.1702C59.7869 22.9961 59.7613 22.823 59.7159 22.654C59.6431 22.3631 59.5839 22.3193 59.2861 22.3052H54.003C53.9308 22.3052 53.8586 22.3064 53.7864 22.3076C53.642 22.3101 53.4976 22.3125 53.3532 22.3052C53.101 22.3052 53.035 22.2317 53.0147 21.9924C53.013 21.9674 53.013 21.9423 53.0147 21.9173V17.2638C53.0164 16.9666 53.0926 16.9009 53.3887 16.8868H59.7277C59.9443 16.8868 60.1609 16.8836 60.3758 16.8727C60.5191 16.8727 60.6355 16.7658 60.6364 16.6334C60.6483 16.4347 60.6483 16.2345 60.6483 16.0343V11.1555C60.6483 11.0928 60.6486 11.0346 60.649 10.9807C60.651 10.6405 60.652 10.4697 60.5601 10.3849C60.468 10.2999 60.2826 10.3008 59.9114 10.3025C59.8551 10.3027 59.7946 10.303 59.7294 10.303H46.4134C46.3122 10.303 46.2209 10.3022 46.1388 10.3014C45.7685 10.298 45.5817 10.2962 45.4881 10.3814C45.3928 10.4682 45.3942 10.6451 45.397 11.0022C45.3975 11.0688 45.3981 11.1416 45.3981 11.2212Z" fill="white"/>
<path d="M70.5003 30.6377V22.2301C70.5226 21.68 70.5034 21.1291 70.4428 20.5814C70.424 20.3572 70.4313 20.1316 70.4648 19.9088C70.5443 18.9859 70.563 18.0599 70.5426 17.1355C70.5426 16.8398 70.4682 16.7773 70.1551 16.7757H66.5016C66.3617 16.7757 66.2389 16.7773 66.1311 16.7788C65.7397 16.784 65.5466 16.7865 65.4524 16.6988C65.3607 16.6134 65.363 16.4422 65.3674 16.1043C65.3688 16.0021 65.3703 15.8846 65.3696 15.7496C65.3639 14.7318 65.3658 13.714 65.3677 12.6963L65.3677 12.6856C65.3686 12.1803 65.3696 11.6749 65.3696 11.1696C65.3696 10.9694 65.3696 10.7692 65.3831 10.5705C65.3799 10.5077 65.404 10.4464 65.4502 10.4002C65.4963 10.3541 65.5605 10.3269 65.6285 10.3249C65.8163 10.3124 66.0058 10.3093 66.1954 10.3093H82.4406C83.2748 10.3093 83.2867 10.3093 83.2867 11.1086V15.9874C83.2867 16.1625 83.2867 16.3377 83.2715 16.5129C83.2742 16.5764 83.2492 16.6382 83.2021 16.6844C83.1549 16.7306 83.0897 16.7573 83.021 16.7585C82.8315 16.7695 82.642 16.7742 82.4541 16.7757H79.1154C78.8988 16.7757 78.6822 16.7757 78.4673 16.7867C78.3258 16.7795 78.204 16.8782 78.1931 17.0088C78.1821 17.083 78.1753 17.1576 78.1728 17.2325C78.1629 17.6555 78.1479 18.0787 78.1329 18.5018C78.0991 19.454 78.0653 20.4066 78.0899 21.3573C78.1821 25.01 78.1656 28.6628 78.149 32.316L78.149 32.3188C78.1409 34.0932 78.1329 35.8676 78.1373 37.6423C78.1373 38.1798 78.1209 38.7196 78.1044 39.2596C78.0934 39.6197 78.0825 39.9808 78.0764 40.3405C78.0679 40.7535 78.0205 40.7973 77.5433 40.7988H73.6512C72.7577 40.7988 71.8643 40.7988 70.9708 40.7848C70.6019 40.7848 70.546 40.7269 70.524 40.3984C70.5071 40.1247 70.5071 39.8478 70.5071 39.5725C70.5026 36.5942 70.5003 33.616 70.5003 30.6377Z" fill="white"/>
<path d="M13.5574 11.2853L13.5625 40.4062C13.5777 40.7378 13.6234 40.7738 14.0126 40.7879H26.029C26.0923 40.7879 26.1555 40.7889 26.2187 40.79C26.3449 40.7921 26.4708 40.7941 26.5959 40.7879C26.9259 40.7754 26.9834 40.7269 26.9987 40.4438V34.5889C26.9978 34.1167 27.0199 33.8974 26.9119 33.7964C26.8023 33.6939 26.559 33.713 26.0223 33.713H21.6377C21.1301 33.7114 21.0675 33.6535 21.0556 33.2077C21.0353 32.6071 21.0353 32.0064 21.0353 31.4058V11.3604C21.0353 11.2853 21.0364 11.2103 21.0376 11.1352C21.0398 10.985 21.0421 10.8349 21.0353 10.6847C21.0201 10.364 20.9626 10.3171 20.5869 10.303H14.6591C14.0367 10.3054 13.762 10.2718 13.6425 10.3816C13.5255 10.4892 13.5574 10.7343 13.5574 11.2853Z" fill="white"/>
<path fill-rule="evenodd" clip-rule="evenodd" d="M1.19584 51.3291C1.06928 51.3291 0.957418 51.3304 0.85857 51.3316C0.476619 51.3361 0.288966 51.3383 0.198635 51.253C0.11143 51.1707 0.114887 51.0068 0.12168 50.6848C0.123851 50.5818 0.126364 50.4627 0.126364 50.3249C0.119595 34.0863 0.116211 17.8456 0.116211 1.60289V0.626824C0.116211 0.0324248 0.131441 0.0136543 0.806633 0.00114065H92.2537C92.3387 0.00114065 92.4176 0.000813066 92.4909 0.000508999C92.9854 -0.00154372 93.2215 -0.00252408 93.3325 0.105591C93.434 0.204422 93.4308 0.394418 93.4248 0.758095C93.4232 0.857013 93.4213 0.969852 93.4213 1.09609V50.2686C93.4213 50.4039 93.4235 50.5222 93.4253 50.6256C93.4317 50.9776 93.435 51.1564 93.3397 51.2458C93.2416 51.3378 93.0391 51.3354 92.6282 51.3303C92.5145 51.3289 92.3846 51.3274 92.2368 51.3275L1.19584 51.3291ZM86.4528 45.9216C86.7219 45.9216 86.9926 45.9138 87.2634 45.8982C87.3772 45.8965 87.4696 45.8125 87.4732 45.7073C87.4901 45.4586 87.502 45.2083 87.502 44.9581V5.84503C87.4851 5.54939 87.4208 5.48369 87.1246 5.46805C86.9266 5.45909 86.7263 5.45956 86.5266 5.46002L86.3936 5.46023H40.67C40.5308 5.46023 40.4081 5.45865 40.2999 5.45725C39.897 5.45205 39.6958 5.44946 39.5967 5.54087C39.4977 5.63212 39.5005 5.81703 39.506 6.18651C39.5076 6.29006 39.5094 6.40811 39.5092 6.54266V32.7416C39.5092 32.9919 39.5041 33.2421 39.494 33.4924C39.4963 33.5556 39.4707 33.6169 39.4232 33.6623C39.3756 33.7077 39.3102 33.7333 39.2418 33.7333C39.0614 33.745 38.8809 33.7459 38.7005 33.7468L38.592 33.7474H33.1516C33.018 33.7474 32.9004 33.7489 32.797 33.7503C32.4167 33.7553 32.2272 33.7578 32.134 33.6717C32.0415 33.5862 32.044 33.4134 32.0489 33.0688C32.0502 32.9796 32.0516 32.8787 32.0516 32.7651V6.41596C32.0516 6.32791 32.0524 6.24792 32.0531 6.17526C32.0566 5.82368 32.0583 5.64336 31.9616 5.55187C31.8603 5.45604 31.651 5.45715 31.2225 5.45943C31.1509 5.45982 31.0732 5.46023 30.9889 5.46023H8.4825C8.12443 5.46023 7.76637 5.45094 7.40897 5.44167C7.27992 5.43832 7.15096 5.43498 7.02212 5.43207C6.76322 5.43207 6.68368 5.48056 6.68368 5.7324C6.66845 6.25798 6.65999 6.78199 6.65999 7.30756V44.0915C6.65999 44.3668 6.65999 44.6421 6.67014 44.9174C6.67483 45.064 6.6756 45.1894 6.67626 45.2966C6.67813 45.5998 6.67911 45.7576 6.76516 45.8389C6.8585 45.9271 7.05192 45.9254 7.45514 45.9218C7.54573 45.921 7.64691 45.9201 7.75993 45.9201L86.4528 45.9216Z" fill="white"/>
</svg>
